<?xml version="1.0" encoding="iso-8859-1"?>
<!-- Generator: Adobe Illustrator 19.0.0, SVG Export Plug-In . SVG Version: 6.00 Build 0)  -->
<svg version="1.1" id="Capa_1" xmlns="http://www.w3.org/2000/svg" xmlns:xlink="http://www.w3.org/1999/xlink" x="0px" y="0px"
	 viewBox="0 0 512 512" style="enable-background:new 0 0 512 512;" xml:space="preserve">
<g>
	<g>
		<path d="M256,0C114.844,0,0,114.844,0,256s114.844,256,256,256s256-114.844,256-256S397.156,0,256,0z M362.667,352
			c0,5.896-4.771,10.667-10.667,10.667H224c-5.896,0-10.667-4.771-10.667-10.667v-21.333c0-5.896,4.771-10.667,10.667-10.667h59.583
			L141.792,178.208c-2.083-2.083-3.125-4.813-3.125-7.542c0-2.729,1.042-5.458,3.125-7.542l21.333-21.333
			c4.167-4.167,10.917-4.167,15.083,0L320,283.583V224c0-5.896,4.771-10.667,10.667-10.667H352c5.896,0,10.667,4.771,10.667,10.667
			V352z"/>
	</g>
</g>
<g>
</g>
<g>
</g>
<g>
</g>
<g>
</g>
<g>
</g>
<g>
</g>
<g>
</g>
<g>
</g>
<g>
</g>
<g>
</g>
<g>
</g>
<g>
</g>
<g>
</g>
<g>
</g>
<g>
</g>
</svg>
